<svg xmlns="http://www.w3.org/2000/svg" xmlns:xlink="http://www.w3.org/1999/xlink" fill="none" version="1.1" width="244" height="244" viewBox="0 0 244 244"><defs><filter id="master_svg0_162_04343" filterUnits="objectBoundingBox" color-interpolation-filters="sRGB" x="-0.09803921568627451" y="-0.09803921568627451" width="1.196078431372549" height="1.196078431372549"><feFlood flood-opacity="0" result="BackgroundImageFix"/><feBlend mode="normal" in="SourceGraphic" in2="BackgroundImageFix" result="shape"/><feGaussianBlur stdDeviation="5" result="effect1_foregroundBlur"/></filter><linearGradient x1="0.5" y1="0" x2="0.5" y2="1" id="master_svg1_61_9866"><stop offset="0%" stop-color="#7099E6" stop-opacity="1"/><stop offset="49.28571283817291%" stop-color="#4C6BA5" stop-opacity="0.2199999988079071"/><stop offset="96.5753436088562%" stop-color="#7099E6" stop-opacity="1"/></linearGradient></defs><g transform="matrix(0,1,-1,0,244,-204)" filter="url(#master_svg0_162_04343)"><path d="M428,122Q428,124.504,427.877,127.005Q427.754,129.506,427.509,131.998Q427.26300000000003,134.49,426.89599999999996,136.966Q426.529,139.44299999999998,426.03999999999996,141.899Q425.552,144.35500000000002,424.943,146.784Q424.33500000000004,149.213,423.608,151.609Q422.881,154.005,422.03700000000003,156.363Q421.19399999999996,158.72,420.236,161.034Q419.277,163.347,418.207,165.611Q417.13599999999997,167.874,415.956,170.082Q414.776,172.291,413.488,174.438Q412.201,176.586,410.81,178.668Q409.419,180.75,407.927,182.761Q406.43600000000004,184.773,404.847,186.708Q403.259,188.644,401.577,190.499Q399.895,192.354,398.125,194.125Q396.35400000000004,195.895,394.499,197.577Q392.644,199.259,390.70799999999997,200.847Q388.773,202.436,386.76099999999997,203.927Q384.75,205.419,382.668,206.81Q380.586,208.201,378.438,209.488Q376.291,210.776,374.082,211.956Q371.874,213.136,369.611,214.207Q367.347,215.277,365.034,216.236Q362.72,217.194,360.363,218.037Q358.005,218.881,355.60900000000004,219.608Q353.21299999999997,220.335,350.784,220.943Q348.355,221.552,345.899,222.04Q343.443,222.529,340.966,222.896Q338.49,223.263,335.998,223.509Q333.506,223.754,331.005,223.877Q328.504,224,326,224Q323.496,224,320.9951,223.877Q318.4941,223.754,316.0022,223.509Q313.51030000000003,223.263,311.0335,222.896Q308.5566,222.529,306.1008,222.04Q303.6449,221.552,301.216,220.943Q298.7871,220.335,296.391,219.608Q293.9948,218.881,291.6372,218.037Q289.2796,217.194,286.9663,216.236Q284.6529,215.277,282.3894,214.207Q280.1258,213.136,277.9175,211.956Q275.7092,210.776,273.5615,209.488Q271.4138,208.201,269.3318,206.81Q267.2499,205.419,265.2387,203.927Q263.2275,202.436,261.2919,200.847Q259.3563,199.259,257.501,197.577Q255.6457,195.895,253.8751,194.125Q252.1045,192.354,250.423,190.499Q248.7414,188.644,247.1529,186.708Q245.5644,184.773,244.0728,182.761Q242.5812,180.75,241.1901,178.668Q239.799,176.586,238.5117,174.438Q237.2244,172.291,236.044,170.082Q234.8637,167.874,233.79309,165.611Q232.72251,163.347,231.76429,161.034Q230.80606,158.72,229.9625,156.363Q229.11895,154.005,228.39209,151.609Q227.66522,149.213,227.05681,146.784Q226.4484,144.35500000000002,225.9599,141.899Q225.4714,139.44299999999998,225.104,136.966Q224.736589,134.49,224.491158,131.998Q224.245727,129.506,224.122863,127.005Q224,124.504,224,122Q224,119.496,224.122863,116.9951Q224.245727,114.4941,224.491158,112.0022Q224.736589,109.5103,225.104,107.0335Q225.4714,104.5566,225.9599,102.1008Q226.4484,99.6449,227.05681,97.216Q227.66522,94.7871,228.39209,92.391Q229.11895,89.9948,229.9625,87.6372Q230.80606,85.2796,231.76429,82.96629999999999Q232.72251,80.6529,233.79309,78.3894Q234.8637,76.1258,236.044,73.91749999999999Q237.2244,71.70920000000001,238.5117,69.5615Q239.799,67.41380000000001,241.1901,65.3318Q242.5812,63.2499,244.0728,61.2387Q245.5644,59.2275,247.1529,57.2919Q248.7414,55.3563,250.423,53.501Q252.1045,51.645700000000005,253.8751,49.8751Q255.6457,48.1045,257.501,46.423Q259.3563,44.7414,261.2919,43.1529Q263.2275,41.5644,265.2387,40.0728Q267.2499,38.581199999999995,269.3318,37.1901Q271.4138,35.799,273.5615,34.5117Q275.7092,33.2244,277.9175,32.044Q280.1258,30.8637,282.3894,29.79309Q284.6529,28.72251,286.9663,27.76429Q289.2796,26.806060000000002,291.6372,25.9625Q293.9948,25.118949999999998,296.391,24.39209Q298.7871,23.66522,301.216,23.05681Q303.6449,22.4484,306.1008,21.9599Q308.5566,21.4714,311.0335,21.104Q313.51030000000003,20.736589,316.0022,20.491158Q318.4941,20.245727,320.9951,20.122863Q323.496,20,326,20Q328.504,20,331.005,20.122863Q333.506,20.245727,335.998,20.491158Q338.49,20.736589,340.966,21.104Q343.443,21.4714,345.899,21.9599Q348.355,22.4484,350.784,23.05681Q353.21299999999997,23.66522,355.60900000000004,24.39209Q358.005,25.118949999999998,360.363,25.9625Q362.72,26.806060000000002,365.034,27.76429Q367.347,28.72251,369.611,29.79309Q371.874,30.8637,374.082,32.044Q376.291,33.2244,378.438,34.5117Q380.586,35.799,382.668,37.1901Q384.75,38.581199999999995,386.76099999999997,40.0728Q388.773,41.5644,390.70799999999997,43.1529Q392.644,44.7414,394.499,46.423Q396.35400000000004,48.1045,398.125,49.8751Q399.895,51.645700000000005,401.577,53.501Q403.259,55.3563,404.847,57.2919Q406.43600000000004,59.2275,407.927,61.2387Q409.419,63.2499,410.81,65.3318Q412.201,67.41380000000001,413.488,69.5615Q414.776,71.70920000000001,415.956,73.91749999999999Q417.13599999999997,76.1258,418.207,78.3894Q419.277,80.6529,420.236,82.96629999999999Q421.19399999999996,85.2796,422.03700000000003,87.6372Q422.881,89.9948,423.608,92.391Q424.33500000000004,94.7871,424.943,97.216Q425.552,99.6449,426.03999999999996,102.1008Q426.529,104.5566,426.89599999999996,107.0335Q427.26300000000003,109.5103,427.509,112.0022Q427.754,114.4941,427.877,116.9951Q428,119.496,428,122ZM421.5,122Q421.5,119.6556,421.385,117.314Q421.27,114.9725,421.03999999999996,112.6394Q420.81,110.3062,420.466,107.9872Q420.122,105.6682,419.66499999999996,103.3689Q419.20799999999997,101.0695,418.63800000000003,98.7954Q418.068,96.5213,417.38800000000003,94.2778Q416.707,92.0344,415.91700000000003,89.827Q415.128,87.6197,414.23,85.4537Q413.33299999999997,83.2878,412.331,81.1685Q411.329,79.0492,410.223,76.9816Q409.118,74.914,407.913,72.9032Q406.70799999999997,70.8923,405.405,68.943Q404.103,66.99369999999999,402.706,65.11070000000001Q401.31,63.2277,399.822,61.4154Q398.33500000000004,59.6032,396.76099999999997,57.8661Q395.18600000000004,56.129,393.529,54.4713Q391.871,52.8136,390.134,51.2392Q388.397,49.6648,386.58500000000004,48.177499999999995Q384.772,46.690200000000004,382.889,45.2937Q381.006,43.897099999999995,379.057,42.5947Q377.108,41.2922,375.097,40.0869Q373.086,38.881699999999995,371.01800000000003,37.7765Q368.951,36.6714,366.831,35.669Q364.712,34.6667,362.546,33.7695Q360.38,32.872299999999996,358.173,32.082499999999996Q355.966,31.2927,353.722,30.6122Q351.479,29.93166,349.205,29.362009999999998Q346.93,28.79237,344.631,28.33501Q342.332,27.87764,340.01300000000003,27.53364Q337.694,27.18965,335.361,26.95986Q333.028,26.73007,330.68600000000004,26.61503Q328.344,26.5,326,26.5Q323.6556,26.5,321.31399999999996,26.61503Q318.97249999999997,26.73007,316.6394,26.95986Q314.3062,27.18965,311.98720000000003,27.53364Q309.6682,27.87764,307.3689,28.33501Q305.0695,28.79237,302.7954,29.362009999999998Q300.5213,29.93166,298.2778,30.6122Q296.0344,31.2927,293.827,32.082499999999996Q291.61969999999997,32.872299999999996,289.4537,33.7695Q287.2878,34.6667,285.1685,35.669Q283.0492,36.6714,280.9816,37.7765Q278.914,38.881699999999995,276.90319999999997,40.0869Q274.8923,41.2922,272.943,42.5947Q270.9937,43.897099999999995,269.1107,45.2937Q267.2277,46.690200000000004,265.4154,48.177499999999995Q263.6032,49.6648,261.8661,51.2392Q260.129,52.8136,258.4713,54.4713Q256.8136,56.129,255.2392,57.8661Q253.6648,59.6032,252.1775,61.4154Q250.6902,63.2277,249.2937,65.11070000000001Q247.8971,66.99369999999999,246.5947,68.943Q245.2922,70.8923,244.0869,72.9032Q242.8817,74.914,241.7765,76.9816Q240.6714,79.0492,239.669,81.1685Q238.6667,83.2878,237.7695,85.4537Q236.8723,87.6197,236.0825,89.827Q235.2927,92.0344,234.6122,94.2778Q233.93166,96.5213,233.36201,98.7954Q232.79237,101.0695,232.335,103.3689Q231.87764,105.6682,231.53364,107.9872Q231.18965,110.3062,230.95986,112.6394Q230.73007,114.9725,230.61503,117.314Q230.5,119.6556,230.5,122Q230.5,124.344,230.61503,126.686Q230.73007,129.02800000000002,230.95986,131.361Q231.18965,133.69400000000002,231.53364,136.013Q231.87764,138.332,232.335,140.631Q232.79237,142.93,233.36201,145.20499999999998Q233.93166,147.47899999999998,234.6122,149.722Q235.2927,151.966,236.0825,154.173Q236.8723,156.38,237.7695,158.546Q238.6667,160.712,239.669,162.831Q240.6714,164.951,241.7765,167.018Q242.8817,169.086,244.0869,171.097Q245.2922,173.108,246.5947,175.057Q247.8971,177.006,249.2937,178.889Q250.6902,180.772,252.1775,182.585Q253.6648,184.397,255.2392,186.134Q256.8136,187.871,258.4713,189.529Q260.129,191.186,261.8661,192.761Q263.6032,194.335,265.4154,195.822Q267.2277,197.31,269.1107,198.706Q270.9937,200.103,272.943,201.405Q274.8923,202.708,276.90319999999997,203.913Q278.914,205.118,280.9816,206.223Q283.0492,207.329,285.1685,208.331Q287.2878,209.333,289.4537,210.23Q291.61969999999997,211.128,293.827,211.917Q296.0344,212.707,298.2778,213.388Q300.5213,214.068,302.7954,214.638Q305.0695,215.208,307.3689,215.665Q309.6682,216.122,311.98720000000003,216.466Q314.3062,216.81,316.6394,217.04Q318.97249999999997,217.27,321.31399999999996,217.385Q323.6556,217.5,326,217.5Q328.344,217.5,330.68600000000004,217.385Q333.028,217.27,335.361,217.04Q337.694,216.81,340.01300000000003,216.466Q342.332,216.122,344.631,215.665Q346.93,215.208,349.205,214.638Q351.479,214.068,353.722,213.388Q355.966,212.707,358.173,211.917Q360.38,211.128,362.546,210.23Q364.712,209.333,366.831,208.331Q368.951,207.329,371.01800000000003,206.223Q373.086,205.118,375.097,203.913Q377.108,202.708,379.057,201.405Q381.006,200.103,382.889,198.706Q384.772,197.31,386.58500000000004,195.822Q388.397,194.335,390.134,192.761Q391.871,191.186,393.529,189.529Q395.18600000000004,187.871,396.76099999999997,186.134Q398.33500000000004,184.397,399.822,182.585Q401.31,180.772,402.706,178.889Q404.103,177.006,405.405,175.057Q406.70799999999997,173.108,407.913,171.097Q409.118,169.086,410.223,167.018Q411.329,164.951,412.331,162.831Q413.33299999999997,160.712,414.23,158.546Q415.128,156.38,415.91700000000003,154.173Q416.707,151.966,417.38800000000003,149.722Q418.068,147.47899999999998,418.63800000000003,145.20499999999998Q419.20799999999997,142.93,419.66499999999996,140.631Q420.122,138.332,420.466,136.013Q420.81,133.69400000000002,421.03999999999996,131.361Q421.27,129.02800000000002,421.385,126.686Q421.5,124.344,421.5,122Z" fill="url(#master_svg1_61_9866)" fill-opacity="1"/></g></svg>