<svg xmlns="http://www.w3.org/2000/svg" viewBox="0 0 120 100"><defs><radialGradient id="gl" cx="50%" cy="62%" r="55%"><stop offset="0%" stop-color="#9b59b6" stop-opacity="0.35"/><stop offset="60%" stop-color="#9b59b6" stop-opacity="0.08"/><stop offset="100%" stop-color="#9b59b6" stop-opacity="0"/></radialGradient><linearGradient id="pt" x1="0" y1="0" x2="0" y2="1"><stop offset="0%" stop-color="#9b59b6" stop-opacity="0.5"/><stop offset="100%" stop-color="#9b59b6" stop-opacity="0.12"/></linearGradient></defs><ellipse cx="60" cy="86" rx="44" ry="11" fill="url(#gl)"/><polygon points="20,80 60,92 100,80 60,68" fill="none" stroke="#9b59b6" stroke-width="1" opacity="0.55"/><polygon points="20,74 60,86 100,74 60,62" fill="none" stroke="#9b59b6" stroke-width="1" opacity="0.4"/><polygon points="20,68 60,80 100,68 60,56" fill="none" stroke="#9b59b6" stroke-width="1" opacity="0.25000000000000006"/><polygon points="24,74 60,86 96,74 60,62" fill="url(#pt)" stroke="#9b59b6" stroke-width="1.2" opacity="0.9"/>
  <rect x="30" y="14" width="60" height="48" rx="5" fill="#15101e" stroke="#9b59b6" stroke-width="1.5"/>
  <rect x="34" y="18" width="52" height="26" rx="2" fill="#0a0612"/>
  <polyline points="37,38 44,30 50,36 57,26 64,32 71,24 78,30 83,27" fill="none" stroke="#2ecc71" stroke-width="1.6" stroke-linejoin="round"/>
  <rect x="37" y="20" width="10" height="3" rx="1" fill="#9b59b6"/>
  <rect x="49" y="20" width="10" height="3" rx="1" fill="#3498db"/>
  <rect x="61" y="20" width="10" height="3" rx="1" fill="#2ecc71"/>
  <rect x="34" y="48" width="52" height="10" rx="2" fill="#0a0612"/>
  <circle cx="40" cy="53" r="2" fill="#2ecc71"/><circle cx="47" cy="53" r="2" fill="#f39c12"/>
  <rect x="55" y="51" width="27" height="4" rx="1" fill="#2a1e3a"/>
  <text x="60" y="73" text-anchor="middle" fill="#c58fdd" font-size="8" font-family="sans-serif" font-weight="bold">EMS</text></svg>