<svg xmlns="http://www.w3.org/2000/svg" viewBox="0 0 120 100"><defs><radialGradient id="gl" cx="50%" cy="62%" r="55%"><stop offset="0%" stop-color="#f1c40f" stop-opacity="0.35"/><stop offset="60%" stop-color="#f1c40f" stop-opacity="0.08"/><stop offset="100%" stop-color="#f1c40f" stop-opacity="0"/></radialGradient><linearGradient id="pt" x1="0" y1="0" x2="0" y2="1"><stop offset="0%" stop-color="#f1c40f" stop-opacity="0.5"/><stop offset="100%" stop-color="#f1c40f" stop-opacity="0.12"/></linearGradient></defs><ellipse cx="60" cy="86" rx="44" ry="11" fill="url(#gl)"/><polygon points="20,80 60,92 100,80 60,68" fill="none" stroke="#f1c40f" stroke-width="1" opacity="0.55"/><polygon points="20,74 60,86 100,74 60,62" fill="none" stroke="#f1c40f" stroke-width="1" opacity="0.4"/><polygon points="20,68 60,80 100,68 60,56" fill="none" stroke="#f1c40f" stroke-width="1" opacity="0.25000000000000006"/><polygon points="24,74 60,86 96,74 60,62" fill="url(#pt)" stroke="#f1c40f" stroke-width="1.2" opacity="0.9"/>
  <polygon points="26,58 60,70 94,58 60,46" fill="#3a4150" stroke="#5a6478" stroke-width="1"/>
  <g transform="translate(0,-6)">
    <rect x="34" y="34" width="38" height="24" rx="3" fill="#c8d2dc" stroke="#8a96a4" stroke-width="1"/>
    <rect x="34" y="34" width="38" height="8" rx="3" fill="#dde6ee"/>
    <line x1="38" y1="46" x2="68" y2="46" stroke="#8a96a4" stroke-width="0.8"/>
    <line x1="38" y1="50" x2="68" y2="50" stroke="#8a96a4" stroke-width="0.8"/>
    <line x1="38" y1="54" x2="68" y2="54" stroke="#8a96a4" stroke-width="0.8"/>
    <rect x="72" y="38" width="14" height="18" rx="2" fill="#9aa6b4" stroke="#7a8696" stroke-width="1"/>
    <rect x="74" y="40" width="10" height="3" fill="#5a6678"/>
    <rect x="74" y="45" width="10" height="3" fill="#5a6678"/>
    <rect x="74" y="50" width="10" height="3" fill="#5a6678"/>
    <rect x="44" y="28" width="5" height="8" fill="#7a8696"/>
    <circle cx="46.5" cy="27" r="3" fill="#5a6678"/>
  </g>
  <text x="53" y="50" text-anchor="middle" fill="#2a3038" font-size="6" font-family="monospace" font-weight="bold">GEN</text>
  <line x1="60" y1="66" x2="60" y2="72" stroke="#888" stroke-width="2"/></svg>