<svg xmlns="http://www.w3.org/2000/svg" viewBox="0 0 120 100"><defs><radialGradient id="gl" cx="50%" cy="62%" r="55%"><stop offset="0%" stop-color="#5ba3e0" stop-opacity="0.35"/><stop offset="60%" stop-color="#5ba3e0" stop-opacity="0.08"/><stop offset="100%" stop-color="#5ba3e0" stop-opacity="0"/></radialGradient><linearGradient id="pt" x1="0" y1="0" x2="0" y2="1"><stop offset="0%" stop-color="#5ba3e0" stop-opacity="0.5"/><stop offset="100%" stop-color="#5ba3e0" stop-opacity="0.12"/></linearGradient></defs><ellipse cx="60" cy="86" rx="44" ry="11" fill="url(#gl)"/><polygon points="20,80 60,92 100,80 60,68" fill="none" stroke="#5ba3e0" stroke-width="1" opacity="0.55"/><polygon points="20,74 60,86 100,74 60,62" fill="none" stroke="#5ba3e0" stroke-width="1" opacity="0.4"/><polygon points="20,68 60,80 100,68 60,56" fill="none" stroke="#5ba3e0" stroke-width="1" opacity="0.25000000000000006"/><polygon points="24,74 60,86 96,74 60,62" fill="url(#pt)" stroke="#5ba3e0" stroke-width="1.2" opacity="0.9"/><g transform="translate(0,-2)"><polygon points="42,24 60,30 60,68 42,62" fill="#c8d8e8"/><polygon points="60,30 78,24 78,62 60,68" fill="#9cb0c4"/><polygon points="42,24 60,18 78,24 60,30" fill="#dce8f4"/><g fill="#5a9fd4" opacity="0.85"><polygon points="45,30 52,32 52,37 45,35"/><polygon points="45,40 52,42 52,47 45,45"/><polygon points="45,50 52,52 52,57 45,55"/><polygon points="63,31 70,29 70,34 63,36"/><polygon points="63,41 70,39 70,44 63,46"/><polygon points="63,51 70,49 70,54 63,56"/></g></g><line x1="60" y1="68" x2="60" y2="74" stroke="#888" stroke-width="2"/></svg>