<svg xmlns="http://www.w3.org/2000/svg" viewBox="0 0 120 100"><defs><radialGradient id="gl" cx="50%" cy="62%" r="55%"><stop offset="0%" stop-color="#4dd0ff" stop-opacity="0.35"/><stop offset="60%" stop-color="#4dd0ff" stop-opacity="0.08"/><stop offset="100%" stop-color="#4dd0ff" stop-opacity="0"/></radialGradient><linearGradient id="pt" x1="0" y1="0" x2="0" y2="1"><stop offset="0%" stop-color="#4dd0ff" stop-opacity="0.5"/><stop offset="100%" stop-color="#4dd0ff" stop-opacity="0.12"/></linearGradient></defs><ellipse cx="60" cy="86" rx="44" ry="11" fill="url(#gl)"/><polygon points="20,80 60,92 100,80 60,68" fill="none" stroke="#4dd0ff" stroke-width="1" opacity="0.55"/><polygon points="20,74 60,86 100,74 60,62" fill="none" stroke="#4dd0ff" stroke-width="1" opacity="0.4"/><polygon points="20,68 60,80 100,68 60,56" fill="none" stroke="#4dd0ff" stroke-width="1" opacity="0.25000000000000006"/><polygon points="24,74 60,86 96,74 60,62" fill="url(#pt)" stroke="#4dd0ff" stroke-width="1.2" opacity="0.9"/>
  <rect x="36" y="12" width="48" height="52" rx="6" fill="#0e2murmur" stroke="#4dd0ff" stroke-width="1.5"/>
  <rect x="36" y="12" width="48" height="52" rx="6" fill="#0e2038" stroke="#4dd0ff" stroke-width="1.5"/>
  <rect x="36" y="12" width="48" height="14" rx="6" fill="#103a5c" opacity="0.6"/>
  <rect x="42" y="30" width="36" height="16" rx="2" fill="#021018" stroke="#1a5a7a" stroke-width="0.8"/>
  <text x="60" y="43" text-anchor="middle" fill="#3affd0" font-size="11" font-family="monospace" font-weight="bold">88.8</text>
  <text x="60" y="22" text-anchor="middle" fill="#bfe8ff" font-size="7" font-family="sans-serif">kWh</text>
  <circle cx="44" cy="54" r="2.5" fill="#2ecc71"/>
  <circle cx="54" cy="54" r="2.5" fill="#f39c12"/>
  <circle cx="64" cy="54" r="2.5" fill="#3498db"/>
  <rect x="70" y="51" width="10" height="6" rx="1" fill="none" stroke="#4dd0ff" stroke-width="0.8"/>
  <line x1="60" y1="64" x2="60" y2="70" stroke="#888" stroke-width="2"/></svg>