<svg xmlns="http://www.w3.org/2000/svg" viewBox="0 0 120 100"><defs><radialGradient id="gl" cx="50%" cy="62%" r="55%"><stop offset="0%" stop-color="#1abc9c" stop-opacity="0.35"/><stop offset="60%" stop-color="#1abc9c" stop-opacity="0.08"/><stop offset="100%" stop-color="#1abc9c" stop-opacity="0"/></radialGradient><linearGradient id="pt" x1="0" y1="0" x2="0" y2="1"><stop offset="0%" stop-color="#1abc9c" stop-opacity="0.5"/><stop offset="100%" stop-color="#1abc9c" stop-opacity="0.12"/></linearGradient></defs><ellipse cx="60" cy="86" rx="44" ry="11" fill="url(#gl)"/><polygon points="20,80 60,92 100,80 60,68" fill="none" stroke="#1abc9c" stroke-width="1" opacity="0.55"/><polygon points="20,74 60,86 100,74 60,62" fill="none" stroke="#1abc9c" stroke-width="1" opacity="0.4"/><polygon points="20,68 60,80 100,68 60,56" fill="none" stroke="#1abc9c" stroke-width="1" opacity="0.25000000000000006"/><polygon points="24,74 60,86 96,74 60,62" fill="url(#pt)" stroke="#1abc9c" stroke-width="1.2" opacity="0.9"/>
  <rect x="48" y="20" width="24" height="34" rx="10" fill="#0e2a26" stroke="#1abc9c" stroke-width="1.5"/>
  <circle cx="60" cy="30" r="7" fill="#0a1f1c" stroke="#1abc9c" stroke-width="1"/>
  <circle cx="60" cy="30" r="3" fill="#1abc9c"/>
  <line x1="54" y1="42" x2="66" y2="42" stroke="#1abc9c" stroke-width="1" opacity="0.7"/>
  <line x1="54" y1="46" x2="66" y2="46" stroke="#1abc9c" stroke-width="1" opacity="0.5"/>
  <path d="M72 26 q8 4 0 8" fill="none" stroke="#1abc9c" stroke-width="1.2" opacity="0.6"/>
  <path d="M76 23 q12 7 0 14" fill="none" stroke="#1abc9c" stroke-width="1" opacity="0.35"/>
  <line x1="60" y1="54" x2="60" y2="64" stroke="#888" stroke-width="2"/>
  <text x="60" y="74" text-anchor="middle" fill="#3dd6b8" font-size="7" font-family="sans-serif">传感器</text></svg>