<svg width="180" height="180" viewBox="0 0 180 180" fill="none" xmlns="http://www.w3.org/2000/svg">
  <defs>
    <linearGradient id="bg" x1="18" y1="16" x2="156" y2="164" gradientUnits="userSpaceOnUse">
      <stop stop-color="#071426" />
      <stop offset="0.58" stop-color="#0A2340" />
      <stop offset="1" stop-color="#12395E" />
    </linearGradient>
    <radialGradient id="glow" cx="0" cy="0" r="1" gradientUnits="userSpaceOnUse" gradientTransform="translate(88 76) rotate(90) scale(78 92)">
      <stop stop-color="#1DE2D2" stop-opacity="0.34" />
      <stop offset="1" stop-color="#1DE2D2" stop-opacity="0" />
    </radialGradient>
    <linearGradient id="cloud" x1="48" y1="54" x2="134" y2="126" gradientUnits="userSpaceOnUse">
      <stop stop-color="#CFFDFF" />
      <stop offset="0.48" stop-color="#4DE9F5" />
      <stop offset="1" stop-color="#1EA9FF" />
    </linearGradient>
    <linearGradient id="bolt" x1="77" y1="70" x2="108" y2="116" gradientUnits="userSpaceOnUse">
      <stop stop-color="#FFF3A3" />
      <stop offset="0.44" stop-color="#FFE15A" />
      <stop offset="1" stop-color="#FFC21F" />
    </linearGradient>
    <filter id="softGlow" x="31" y="34" width="118" height="102" filterUnits="userSpaceOnUse" color-interpolation-filters="sRGB">
      <feFlood flood-opacity="0" result="BackgroundImageFix" />
      <feBlend mode="normal" in="SourceGraphic" in2="BackgroundImageFix" result="shape" />
      <feGaussianBlur stdDeviation="6" result="effect1_foregroundBlur" />
    </filter>
  </defs>

  <rect x="8" y="8" width="164" height="164" rx="40" fill="url(#bg)" />
  <rect x="8.75" y="8.75" width="162.5" height="162.5" rx="39.25" stroke="#8FEAFF" stroke-opacity="0.16" stroke-width="1.5" />
  <rect x="20" y="20" width="140" height="140" rx="32" fill="url(#glow)" />

  <path
    d="M45 133C42.7 133 40.9 131.2 40.9 128.9C40.9 126.7 42.7 124.9 45 124.9H61.9C64.1 124.9 66 126.7 66 128.9C66 131.2 64.1 133 61.9 133H45Z"
    fill="#19D7D2"
    fill-opacity="0.85"
  />
  <path
    d="M75.9 133C73.7 133 71.9 131.2 71.9 128.9C71.9 126.7 73.7 124.9 75.9 124.9H103.3C105.6 124.9 107.4 126.7 107.4 128.9C107.4 131.2 105.6 133 103.3 133H75.9Z"
    fill="#56B9FF"
    fill-opacity="0.92"
  />
  <path
    d="M117.5 133C115.3 133 113.5 131.2 113.5 128.9C113.5 126.7 115.3 124.9 117.5 124.9H135C137.3 124.9 139.1 126.7 139.1 128.9C139.1 131.2 137.3 133 135 133H117.5Z"
    fill="#9EF7FF"
    fill-opacity="0.84"
  />

  <g filter="url(#softGlow)">
    <path
      d="M124.8 118H56.2C44.3 118 34.8 109 34.8 97.8C34.8 87.4 42.8 78.9 53.5 77.8C57 62.8 70.8 52 87.1 52C100.9 52 113.1 59.8 118.9 71.7C131.3 72.5 141.2 82 141.2 93.8C141.2 107.1 133.9 118 124.8 118Z"
      fill="url(#cloud)"
    />
  </g>

  <path
    d="M92.8 66.8C94.1 66.8 95.1 67.4 95.7 68.5C96.2 69.5 96.2 70.8 95.6 71.9L88.9 85.4H102.9C104.2 85.4 105.3 86.1 105.8 87.2C106.4 88.4 106.2 89.8 105.3 90.8L85.8 113.4C84.8 114.5 83.3 114.9 82 114.4C80.7 113.9 79.8 112.7 79.9 111.3L81 96.3H69.8C68.4 96.3 67.2 95.5 66.7 94.2C66.2 92.9 66.5 91.5 67.4 90.5L89.9 67.9C90.7 67.2 91.7 66.8 92.8 66.8Z"
    fill="url(#bolt)"
  />

  <circle cx="134" cy="47" r="5" fill="#8FF2FF" />
  <circle cx="134" cy="47" r="10" fill="#8FF2FF" fill-opacity="0.14" />
</svg>
