<svg xmlns="http://www.w3.org/2000/svg" xmlns:xlink="http://www.w3.org/1999/xlink" fill="none" version="1.1" width="234" height="237" viewBox="0 0 234 237"><defs><clipPath id="master_svg0_162_10567"><rect x="0" y="0" width="234" height="237" rx="0"/></clipPath><linearGradient x1="0.5" y1="0" x2="0.5" y2="1" id="master_svg1_162_10577"><stop offset="35.400390625%" stop-color="#5C88C4" stop-opacity="1"/><stop offset="91.28316044807434%" stop-color="#5C88C4" stop-opacity="0"/></linearGradient><filter id="master_svg2_162_10584" filterUnits="objectBoundingBox" color-interpolation-filters="sRGB" x="-0.1407772543132892" y="-0.13863639033462427" width="1.2815545086265785" height="1.2772727806692485"><feFlood flood-opacity="0" result="BackgroundImageFix"/><feBlend mode="normal" in="SourceGraphic" in2="BackgroundImageFix" result="shape"/><feGaussianBlur stdDeviation="6.79796028137207" result="effect1_foregroundBlur"/></filter><linearGradient x1="0.5" y1="0" x2="0.5" y2="1" id="master_svg3_162_10587"><stop offset="0%" stop-color="#5C88C4" stop-opacity="1"/><stop offset="100%" stop-color="#5C88C4" stop-opacity="0"/></linearGradient><linearGradient x1="0.5" y1="0" x2="0.5" y2="1" id="master_svg4_162_10573"><stop offset="0%" stop-color="#CCE2FF" stop-opacity="1"/><stop offset="92.45232343673706%" stop-color="#CCE2FF" stop-opacity="0"/></linearGradient></defs><g clip-path="url(#master_svg0_162_10567)"><g><g><g><path d="M106.8686,20.496807Q107.5479,20.427104,108.2282,20.367161L108.7061,25.79443Q108.0648,25.85094,107.4243,25.91665L106.8686,20.496807ZM97.3376,21.96574Q97.9897,21.83114,98.6435,21.70568L99.6693,27.05642Q99.053,27.17469,98.4383,27.30159L97.3376,21.96574ZM88.1703,24.3383Q88.8238,24.13409,89.48,23.93931L91.0292,29.1625Q90.4102,29.346220000000002,89.7941,29.53877L88.1703,24.3383ZM79.1403,27.66788Q79.7579,27.40416,80.3791,27.149169999999998L82.44659999999999,32.1896Q81.86070000000001,32.430099999999996,81.2784,32.6788L79.1403,27.66788ZM70.59989999999999,31.8264Q71.1993,31.4969,71.8031,31.176000000000002L74.3575,35.9878Q73.788,36.290400000000005,73.2226,36.6012L70.59989999999999,31.8264ZM62.4194,36.8709Q62.9773,36.4872,63.5403,36.1115L66.5623,40.6441Q66.031,40.998599999999996,65.5047,41.360600000000005L62.4194,36.8709ZM54.8472,42.6482Q55.3692,42.2077,55.8971,41.774699999999996L59.3498,45.9882Q58.8515,46.3968,58.3589,46.8126L54.8472,42.6482ZM47.84,49.180499999999995Q48.3172,48.6896,48.8012,48.2054L52.652,52.058Q52.1952,52.5151,51.7445,52.9787L47.84,49.180499999999995ZM41.5185,56.3574Q41.9443,55.8234,42.3774,55.2955L46.587,58.7522Q46.1781,59.2506,45.775999999999996,59.7549L41.5185,56.3574ZM35.9473,64.088Q36.317099999999996,63.5185,36.6947,62.9542L41.2204,65.985Q40.8639,66.51769999999999,40.5145,67.0557L35.9473,64.088ZM31.1122,72.3977Q31.427,71.7904,31.7501,71.1875L36.549800000000005,73.7621Q36.2446,74.33160000000001,35.9471,74.9055L31.1122,72.3977ZM27.15514,81.0247Q27.4062,80.3999,27.66571,79.77850000000001L32.690799999999996,81.87899999999999Q32.4456,82.46600000000001,32.2083,83.0565L27.15514,81.0247ZM24.00012,90.1371Q24.192610000000002,89.4793,24.39415,88.8242L29.59926,90.4269Q29.408830000000002,91.0459,29.22688,91.6677L24.00012,90.1371ZM21.78006,99.327Q21.90581,98.6711,22.04036,98.017L27.374679999999998,99.1152Q27.24751,99.7335,27.12865,100.3534L21.78006,99.327ZM20.42309,108.8994Q20.486163,108.2175,20.558612,107.5364L25.97413,108.113Q25.90565,108.7568,25.84603,109.4014L20.42309,108.8994ZM20.000221567,118.2795Q20,118.1743,20,118.069Q20,117.514,20.00618668,116.959L25.45195,117.0197Q25.4461,117.5444,25.4461,118.0633L25.44632,118.2738L20.000221567,118.2795ZM20.464246,127.673Q20.398408,126.994,20.341893,126.313L25.769289999999998,125.863Q25.82269,126.506,25.88492,127.148L20.464246,127.673ZM21.86114,137.22899999999998Q21.73293,136.575,21.61349,135.92000000000002L26.97121,134.94299999999998Q27.0841,135.562,27.20527,136.179L21.86114,137.22899999999998ZM24.12379,146.42000000000002Q23.92888,145.765,23.743,145.107L28.983919999999998,143.625Q29.15955,144.247,29.34374,144.86599999999999L24.12379,146.42000000000002ZM27.31614,155.512Q27.06285,154.889,26.81801,154.263L31.8898,152.278Q32.1212,152.87,32.3605,153.458L27.31614,155.512ZM31.3139,164.127Q30.9969,163.522,30.688299999999998,162.913L35.5467,160.451Q35.8382,161.027,36.1376,161.599L31.3139,164.127ZM36.1841,172.413Q35.8094,171.841,35.4427,171.265L40.037800000000004,168.341Q40.3845,168.886,40.7382,169.425L36.1841,172.413ZM41.791,180.121Q41.3631,179.589,40.9426,179.051L45.2321,175.694Q45.6293,176.202,46.0333,176.704L41.791,180.121ZM48.144800000000004,187.27Q47.6663,186.781,47.194500000000005,186.288L51.1351,182.527Q51.5805,182.994,52.0325,183.454L48.144800000000004,187.27ZM55.1812,193.77Q54.6571,193.332,54.1391,192.887L57.6905,188.756Q58.1794,189.177,58.6743,189.591L55.1812,193.77ZM62.7763,199.512Q62.2163,199.13,61.6615,198.74L64.7895,194.281Q65.3133,194.649,65.8415,195.008L62.7763,199.512ZM70.9832,204.522Q70.3817,204.194,69.7846,203.858L72.45349999999999,199.109Q73.0168,199.426,73.5841,199.735L70.9832,204.522ZM79.53540000000001,208.638Q78.91550000000001,208.377,78.2992,208.106L80.4847,203.116Q81.0664,203.371,81.6512,203.618L79.53540000000001,208.638ZM88.5883,211.929Q87.9324,211.728,87.2794,211.516L88.9539,206.332Q89.5699,206.531,90.1885,206.722L88.5883,211.929ZM97.7547,214.257Q97.1003,214.125,96.4478,213.984L97.5991,208.659Q98.2138,208.792,98.8318,208.917L97.7547,214.257ZM107.3033,215.685Q106.6212,215.618,105.9401,215.542L106.5488,210.127Q107.1909,210.2,107.8341,210.262L107.3033,215.685ZM116.6826,216.138Q116.63,216.138,116.5774,216.138Q115.9699,216.138,115.3624,216.131L115.432,210.683Q116.0048,210.69,116.5742,210.69L116.6794,210.69L116.6826,216.138ZM126.069,215.663Q125.39,215.731,124.711,215.79L124.245,210.361Q124.886,210.306,125.526,210.242L126.069,215.663ZM135.60899999999998,214.215Q134.957,214.349,134.303,214.472L133.29000000000002,209.119Q133.906,209.003,134.519,208.877L135.60899999999998,214.215ZM144.776,211.865Q144.122,212.067,143.466,212.261L141.929,207.034Q142.547,206.852,143.164,206.661L144.776,211.865ZM153.817,208.554Q153.199,208.817,152.578,209.07L150.522,204.025Q151.108,203.785,151.69,203.539L153.817,208.554ZM162.363,204.417Q161.763,204.745,161.159,205.064L158.616,200.247Q159.186,199.945,159.751,199.636L162.363,204.417ZM170.558,199.389Q169.999,199.772,169.435,200.147L166.423,195.607Q166.956,195.254,167.482,194.893L170.558,199.389ZM178.14,193.63Q177.618,194.07,177.089,194.501L173.646,190.28Q174.145,189.873,174.638,189.458L178.14,193.63ZM185.162,187.114Q184.684,187.604,184.199,188.087L180.357,184.226Q180.814,183.77,181.267,183.307L185.162,187.114ZM191.5,179.951Q191.074,180.484,190.639,181.011L186.437,177.545Q186.848,177.047,187.25,176.544L191.5,179.951ZM197.089,172.232Q196.719,172.801,196.339,173.364L191.821,170.323Q192.178,169.792,192.529,169.254L197.089,172.232ZM201.942,163.934Q201.626,164.541,201.301,165.143L196.507,162.558Q196.814,161.988,197.112,161.415L201.942,163.934ZM205.92,155.312Q205.667,155.937,205.406,156.558L200.386,154.447Q200.632,153.861,200.871,153.269L205.92,155.312ZM209.093,146.211Q208.899,146.869,208.696,147.523L203.494,145.909Q203.687,145.29000000000002,203.87,144.66899999999998L209.093,146.211ZM211.335,137.01999999999998Q211.207,137.676,211.071,138.32999999999998L205.74,137.22Q205.868,136.602,205.988,135.982L211.335,137.01999999999998ZM212.711,127.455Q212.646,128.139,212.573,128.82L207.159,128.231Q207.229,127.587,207.29,126.942L212.711,127.455ZM213.154,117.648Q213.155,117.8585,213.155,118.069Q213.155,118.7298,213.146,119.3905L207.7,119.3182Q207.708,118.6944,207.708,118.0805L207.708,117.6595L213.154,117.648ZM212.669,108.2474Q212.736,108.9272,212.795,109.6078L207.369,110.0709Q207.314,109.428,207.25,108.7851L212.669,108.2474ZM211.252,98.7Q211.383,99.3537,211.503,100.009L206.147,100.9979Q206.033,100.3781,205.911,99.7609L211.252,98.7ZM208.968,89.5082Q209.165,90.1636,209.353,90.8217L204.115,92.3148Q203.938,91.6934,203.752,91.0734L208.968,89.5082ZM205.758,80.42750000000001Q206.012,81.04990000000001,206.258,81.6757L201.191,83.6716Q200.959,83.0804,200.717,82.4922L205.758,80.42750000000001ZM201.74,71.81739999999999Q202.058,72.422,202.368,73.03110000000001L197.515,75.5039Q197.222,74.928,196.921,74.3571L201.74,71.81739999999999ZM196.852,63.5439Q197.226,64.1131,197.594,64.6875L193.005,67.6219Q192.658,67.0791,192.304,66.5419L196.852,63.5439ZM191.227,55.8474Q191.657,56.3784,192.078,56.9153L187.796,60.2817Q187.398,59.7745,186.992,59.2733L191.227,55.8474ZM184.857,48.712599999999995Q185.337,49.1995,185.809,49.693200000000004L181.878,53.4628Q181.431,52.9967,180.978,52.5369L184.857,48.712599999999995ZM177.806,42.227900000000005Q178.332,42.665,178.85,43.1095L175.308,47.248000000000005Q174.819,46.8284,174.323,46.416L177.806,42.227900000000005ZM170.2,36.5051Q170.761,36.8852,171.316,37.2732L168.198,41.7402Q167.674,41.3739,167.145,41.0154L170.2,36.5051ZM161.979,31.5126Q162.581,31.8383,163.179,32.1726L160.521,36.9279Q159.958,36.6125,159.39,36.3053L161.979,31.5126ZM153.422,27.41712Q154.042,27.677039999999998,154.659,27.94567L152.484,32.9407Q151.902,32.6874,151.317,32.4422L153.422,27.41712ZM144.357,24.1447Q145.013,24.34476,145.666,24.55427L144.00400000000002,29.7424Q143.388,29.54488,142.769,29.356189999999998L144.357,24.1447ZM135.191,21.83878Q135.846,21.96928,136.498,22.10895L135.35899999999998,27.43663Q134.744,27.30496,134.127,27.1819L135.191,21.83878ZM125.635,20.432202Q126.316,20.497397,126.997,20.572401L126.401,25.98792Q125.759,25.91721,125.116,25.85574L125.635,20.432202ZM117.5813,20.00529681L117.5238,25.45327Q117.0506,25.44828,116.5866,25.44827L116.271,25.4488L116.2619,20.000523566Q116.4196,20,116.5774,20Q117.0793,20,117.5813,20.00529681Z" fill-rule="evenodd" fill="url(#master_svg1_162_10577)" fill-opacity="1" style="mix-blend-mode:passthrough"/></g></g><g filter="url(#master_svg2_162_10584)"><g><path d="M116.5774,216.138Q118.9483,216.138,121.317,216.02Q123.684,215.901,126.043,215.666Q128.40300000000002,215.43,130.748,215.077Q133.09300000000002,214.723,135.41899999999998,214.253Q137.744,213.784,140.043,213.199Q142.344,212.614,144.613,211.915Q146.881,211.217,149.113,210.405Q151.345,209.594,153.536,208.673Q155.727,207.752,157.87,206.723Q160.013,205.693,162.104,204.558Q164.195,203.424,166.228,202.185Q168.261,200.948,170.233,199.611Q172.204,198.273,174.109,196.839Q176.012,195.405,177.846,193.877Q179.679,192.351,181.435,190.734Q183.192,189.117,184.868,187.415Q186.544,185.711,188.137,183.928Q189.729,182.144,191.233,180.284Q192.737,178.422,194.149,176.489Q195.561,174.555,196.879,172.554Q198.196,170.552,199.415,168.486Q200.633,166.421,201.751,164.299Q202.868,162.176,203.882,159.999Q204.896,157.823,205.804,155.599Q206.711,153.375,207.509,151.108Q208.308,148.84,208.996,146.537Q209.684,144.233,210.261,141.898Q210.837,139.563,211.299,137.201Q211.762,134.84,212.11,132.459Q212.457,130.077,212.689,127.682Q212.922,125.286,213.039,122.881Q213.155,120.477,213.155,118.069Q213.155,115.6615,213.039,113.2571Q212.922,110.8525,212.689,108.4566Q212.457,106.0608,212.11,103.6793Q211.762,101.2979,211.299,98.9367Q210.837,96.5755,210.261,94.2402Q209.684,91.9049,208.996,89.6011Q208.308,87.2973,207.509,85.0306Q206.711,82.7639,205.804,80.53960000000001Q204.896,78.3155,203.882,76.1391Q202.868,73.9628,201.751,71.83959999999999Q200.633,69.7164,199.415,67.6515Q198.196,65.5865,196.879,63.5848Q195.561,61.5831,194.149,59.6493Q192.737,57.7157,191.233,55.8547Q189.729,53.9937,188.137,52.2099Q186.544,50.426100000000005,184.868,48.7238Q183.192,47.0215,181.435,45.4047Q179.679,43.7879,177.846,42.2606Q176.012,40.7334,174.109,39.2992Q172.204,37.8651,170.233,36.5276Q168.261,35.1901,166.228,33.9524Q164.195,32.7147,162.104,31.579900000000002Q160.013,30.445,157.87,29.415680000000002Q155.727,28.38636,153.536,27.46506Q151.345,26.543770000000002,149.113,25.73272Q146.881,24.92166,144.613,24.22282Q142.344,23.52397,140.043,22.93901Q137.744,22.35404,135.41899999999998,21.88437Q133.09300000000002,21.41469,130.748,21.06145Q128.40300000000002,20.708201,126.043,20.47223Q123.684,20.236256,121.317,20.118129Q118.9483,20,116.5774,20Q114.2066,20,111.8386,20.118129Q109.4706,20.236256,107.1112,20.47223Q104.7518,20.708201,102.4066,21.06145Q100.0614,21.41469,97.7361,21.88437Q95.4108,22.35404,93.111,22.93901Q90.8113,23.52397,88.5425,24.22282Q86.2737,24.92166,84.0415,25.73272Q81.8092,26.543770000000002,79.6189,27.46506Q77.4285,28.38636,75.2853,29.415680000000002Q73.142,30.445,71.05109999999999,31.579900000000002Q68.96029999999999,32.7147,66.9267,33.9524Q64.89320000000001,35.1901,62.9219,36.5276Q60.9506,37.8651,59.0463,39.2992Q57.142,40.7334,55.3094,42.2606Q53.4767,43.7879,51.72,45.4047Q49.963300000000004,47.0215,48.2868,48.7238Q46.6105,50.426100000000005,45.018299999999996,52.2099Q43.426100000000005,53.9937,41.9221,55.8547Q40.418,57.7157,39.005700000000004,59.6493Q37.5934,61.5831,36.2762,63.5848Q34.959,65.5865,33.7402,67.6515Q32.5214,69.7164,31.4038,71.83959999999999Q30.286099999999998,73.9628,29.27247,76.1391Q28.2588,78.3155,27.35152,80.53960000000001Q26.44423,82.7639,25.64552,85.0306Q24.846809999999998,87.2973,24.15859,89.6011Q23.47037,91.9049,22.89431,94.2402Q22.31824,96.5755,21.85571,98.9367Q21.39318,101.2979,21.0453,103.6793Q20.697429,106.0608,20.465048,108.4566Q20.232662,110.8525,20.116332,113.2571Q20,115.6615,20,118.069Q20,120.477,20.116332,122.881Q20.232662,125.286,20.465048,127.682Q20.697429,130.077,21.0453,132.459Q21.39318,134.84,21.85571,137.201Q22.31824,139.563,22.89431,141.898Q23.47037,144.233,24.15859,146.537Q24.846809999999998,148.84,25.64552,151.108Q26.44423,153.375,27.35152,155.599Q28.2588,157.823,29.27247,159.999Q30.286099999999998,162.176,31.4038,164.299Q32.5214,166.421,33.7402,168.486Q34.959,170.552,36.2762,172.554Q37.5934,174.555,39.005700000000004,176.489Q40.418099999999995,178.422,41.9221,180.284Q43.426100000000005,182.144,45.018299999999996,183.928Q46.6105,185.711,48.2868,187.415Q49.963300000000004,189.117,51.72,190.734Q53.4767,192.351,55.3094,193.877Q57.142,195.405,59.0463,196.839Q60.9506,198.273,62.9219,199.611Q64.89320000000001,200.948,66.9267,202.185Q68.96029999999999,203.424,71.05109999999999,204.558Q73.142,205.693,75.2853,206.723Q77.4285,207.752,79.6189,208.673Q81.8092,209.594,84.0415,210.405Q86.2737,211.217,88.5425,211.915Q90.8113,212.614,93.111,213.199Q95.4108,213.784,97.7361,214.253Q100.0614,214.723,102.4066,215.077Q104.7518,215.43,107.1112,215.666Q109.4706,215.901,111.8386,216.02Q114.2066,216.138,116.5774,216.138ZM201.3,83.95Q207.708,100.3878,207.708,118.069Q207.708,135.751,201.3,152.188Q194.345,170.028,180.988,183.591Q167.642,197.144,150.097,204.197Q133.946,210.69,116.5774,210.69Q99.2092,210.69,83.05850000000001,204.197Q65.5136,197.144,52.1664,183.591Q38.8099,170.028,31.8547,152.188Q25.4461,135.751,25.4461,118.069Q25.4461,100.3879,31.8547,83.95Q38.8099,66.1103,52.1664,52.5474Q65.5137,38.9941,83.05850000000001,31.941000000000003Q99.2092,25.44828,116.5774,25.44828Q133.946,25.44828,150.097,31.941000000000003Q167.642,38.9941,180.988,52.5474Q194.345,66.1104,201.3,83.95Z" fill-rule="evenodd" fill="url(#master_svg3_162_10587)" fill-opacity="1" style="mix-blend-mode:passthrough"/></g></g><g><g><path d="M88.17035233154297,24.338133510131836Q89.47485233154296,23.930443510131838,90.79035233154296,23.560343510131837L92.26475233154297,28.805153510131838Q91.02435233154297,29.154123510131836,89.79415233154297,29.538583510131836L88.17035233154297,24.338133510131836ZM47.840052331542964,49.18031351013184Q48.795152331542965,48.19761351013184,49.777152331542965,47.242713510131836L53.57325233154297,51.14921351013184Q52.64635233154297,52.050713510131835,51.74455233154297,52.97851351013183L47.840052331542964,49.18031351013184ZM24.00012233154297,90.13691351013183Q24.38579233154297,88.81891351013184,24.80770233154297,87.51231351013183L29.990092331542968,89.18711351013184Q29.59135233154297,90.42191351013183,29.226882331542967,91.66751351013184L24.00012233154297,90.13691351013183ZM21.86114733154297,137.22861351013182Q21.597804331542967,135.88661351013184,21.37145233154297,134.53761351013185L26.742442331542968,133.63561351013183Q26.956402331542968,134.91061351013184,27.205302331542967,136.17961351013184L21.86114733154297,137.22861351013182ZM41.79105233154297,180.12161351013182Q40.935552331542965,179.05761351013183,40.10965233154297,177.97061351013184L44.44555233154297,174.67461351013185Q45.22545233154297,175.69961351013183,46.03335233154297,176.70361351013185L41.79105233154297,180.12161351013182ZM79.53535233154297,208.63761351013184Q78.29385233154298,208.11361351013184,77.06715233154297,207.55561351013185L79.32295233154298,202.59661351013185Q80.48025233154297,203.12361351013183,81.65095233154297,203.61661351013183L79.53535233154297,208.63761351013184ZM126.06845233154297,215.66261351013185Q124.71445233154297,215.79861351013184,123.35645233154297,215.89661351013183L122.96845233154296,210.46161351013183Q124.24845233154296,210.37061351013185,125.52545233154297,210.24161351013183L126.06845233154297,215.66261351013185ZM170.55745233154298,199.38961351013182Q169.42745233154298,200.16261351013185,168.27645233154297,200.90261351013183L165.33045233154297,196.32161351013184Q166.41545233154298,195.62261351013183,167.48245233154296,194.89261351013184L170.55745233154298,199.38961351013182ZM201.94245233154297,163.93361351013183Q201.30945233154296,165.14861351013184,200.64245233154296,166.34461351013184L195.88545233154298,163.69361351013183Q196.51445233154297,162.56361351013183,197.11245233154298,161.41461351013183L201.94245233154297,163.93361351013183ZM213.15545233154296,118.06881351013183Q213.15545233154296,119.39411351013183,213.12045233154296,120.71901351013183L207.67545233154297,120.57381351013184Q207.70845233154296,119.32191351013184,207.70845233154296,118.06881351013183L213.15545233154296,118.06881351013183ZM205.75745233154296,80.42731351013184Q206.27445233154296,81.68901351013184,206.75645233154296,82.96481351013183L201.66045233154296,84.88991351013183Q201.20645233154298,83.68441351013183,200.71745233154297,82.49191351013184L205.75745233154296,80.42731351013184ZM177.80545233154297,42.22781351013184Q178.85645233154298,43.10221351013183,179.88245233154296,44.00631351013183L176.28145233154297,48.09421351013184Q175.31445233154298,47.24111351013184,174.32345233154297,46.41581351013184L177.80545233154297,42.22781351013184ZM137.80745233154298,22.398452510131836L136.59245233154297,27.709593510131835Q135.363452331543,27.428343510131835,134.12645233154296,27.181733510131835L135.19145233154296,21.838613510131836Q136.50345233154297,22.100159510131835,137.80745233154298,22.398452510131836Z" fill-rule="evenodd" fill="url(#master_svg4_162_10573)" fill-opacity="1" style="mix-blend-mode:passthrough"/></g></g></g></g></svg>