<svg xmlns="http://www.w3.org/2000/svg" xmlns:xlink="http://www.w3.org/1999/xlink" fill="none" version="1.1" width="50" height="100" viewBox="0 0 50 100"><g style="mix-blend-mode:passthrough"><g style="mix-blend-mode:passthrough"></g><g style="mix-blend-mode:passthrough"><path d="M26,0L24,0L24,29.127Q23.84038,29.1682,23.68469,29.2224Q23.529,29.2767,23.3783,29.3435Q23.2276,29.4103,23.08291,29.4893Q22.93822,29.5684,22.80052,29.659Q22.66282,29.7497,22.53305,29.8513Q22.40328,29.953,22.28231,30.065Q22.16135,30.177,22.05001,30.2986Q21.938677,30.4202,21.837722,30.5505Q21.736768,30.6808,21.646881,30.819Q21.556994,30.9572,21.478784,31.1024Q21.400573,31.2475,21.334571,31.3986Q21.268568,31.5496,21.215221,31.7056Q21.161873,31.8616,21.121542,32.0214Q21.0812119,32.1813,21.054172,32.3439Q21.027132,32.5065,21.013566,32.6708Q21,32.8351,21,33Q21,33.1965,21.0192611,33.3921Q21.0385222,33.5876,21.0768589,33.7804Q21.115196,33.9731,21.172239,34.1611Q21.229282,34.3492,21.304482,34.5307Q21.379682,34.7123,21.472315,34.8856Q21.564948,35.0589,21.674121,35.2223Q21.783295,35.3857,21.907958,35.5376Q22.03262,35.6895,22.17157,35.8284Q22.31052,35.9674,22.46243,36.092Q22.61433,36.2167,22.77772,36.3259Q22.94111,36.435,23.11441,36.5277Q23.28772,36.6203,23.46927,36.6955Q23.65082,36.7707,23.83886,36.8278Q24.02691,36.8848,24.21964,36.9231Q24.41237,36.9615,24.60793,36.9807Q24.80349,37,25,37Q25.51268,37,26.00878,36.8707L40.574600000000004,62.0994L42.3066,61.0994L27.75677,35.8983Q28.051389999999998,35.6181,28.28359,35.2843Q28.51579,34.9505,28.67608,34.5769Q28.83637,34.2032,28.91818,33.8049Q29,33.4066,29,33Q29,32.8351,28.98643,32.6708Q28.97287,32.5065,28.94583,32.3439Q28.91879,32.1813,28.87846,32.0214Q28.83813,31.8616,28.784779999999998,31.7056Q28.73143,31.5496,28.66543,31.3986Q28.599429999999998,31.2475,28.52122,31.1024Q28.44301,30.9572,28.35312,30.819Q28.26323,30.6808,28.16228,30.5505Q28.061320000000002,30.4202,27.94999,30.2986Q27.83865,30.177,27.71769,30.065Q27.59672,29.953,27.46695,29.8513Q27.33718,29.7497,27.19948,29.659Q27.061790000000002,29.5684,26.91709,29.4893Q26.77241,29.4103,26.6217,29.3435Q26.471,29.2766,26.31531,29.2224Q26.15962,29.1682,26,29.127L26,0ZM27,33Q27,33.0983,26.99037,33.196Q26.98074,33.2938,26.961570000000002,33.3902Q26.9424,33.4865,26.91388,33.5806Q26.88536,33.6746,26.84776,33.7654Q26.81016,33.8561,26.763840000000002,33.9428Q26.71753,34.0294,26.66294,34.1111Q26.60835,34.1928,26.54602,34.2688Q26.48369,34.3447,26.41421,34.4142Q26.34474,34.4837,26.26879,34.546Q26.19283,34.6083,26.11114,34.6629Q26.02945,34.7175,25.94279,34.7638Q25.85614,34.8102,25.76537,34.8478Q25.674590000000002,34.8854,25.58057,34.9139Q25.48655,34.9424,25.39018,34.9616Q25.29382,34.9807,25.19603,34.9904Q25.09825,35,25,35Q24.90175,35,24.80397,34.9904Q24.70618,34.9807,24.60982,34.9616Q24.51345,34.9424,24.41943,34.9139Q24.32541,34.8854,24.23463,34.8478Q24.14386,34.8102,24.05721,34.7638Q23.97055,34.7175,23.88886,34.6629Q23.80716,34.6083,23.73121,34.546Q23.65526,34.4837,23.58579,34.4142Q23.51631,34.3447,23.45398,34.2688Q23.39165,34.1928,23.33706,34.1111Q23.28247,34.0294,23.236159999999998,33.9428Q23.18984,33.8561,23.15224,33.7654Q23.11464,33.6746,23.08612,33.5806Q23.0576,33.4865,23.038429999999998,33.3902Q23.01926,33.2938,23.00963,33.196Q23,33.0983,23,33Q23,32.9017,23.00963,32.804Q23.01926,32.7062,23.038429999999998,32.6098Q23.0576,32.5135,23.08612,32.4194Q23.11464,32.3254,23.15224,32.2346Q23.18984,32.1439,23.236159999999998,32.0572Q23.28247,31.9706,23.33706,31.8889Q23.39165,31.8072,23.45398,31.7312Q23.51631,31.6553,23.58579,31.5858Q23.65526,31.5163,23.73121,31.454Q23.80716,31.3916,23.88886,31.3371Q23.97055,31.2825,24.05721,31.2362Q24.14386,31.1898,24.23463,31.1522Q24.32541,31.1146,24.41943,31.0861Q24.51345,31.0576,24.60982,31.0384Q24.70619,31.0193,24.80397,31.0096Q24.90175,31,25,31Q25.09825,31,25.19603,31.0096Q25.29382,31.0193,25.39018,31.0384Q25.48655,31.0576,25.58057,31.0861Q25.674590000000002,31.1146,25.76537,31.1522Q25.85614,31.1898,25.94279,31.2362Q26.02945,31.2825,26.11114,31.3371Q26.19283,31.3916,26.26879,31.454Q26.34474,31.5163,26.41421,31.5858Q26.48369,31.6553,26.54602,31.7312Q26.60835,31.8072,26.66294,31.8889Q26.71753,31.9706,26.763840000000002,32.0572Q26.81016,32.1439,26.84776,32.2346Q26.88536,32.3254,26.91388,32.4194Q26.9424,32.5135,26.961570000000002,32.6098Q26.98074,32.7062,26.99037,32.804Q27,32.9017,27,33ZM29,67Q29,66.8035,28.98074,66.6079Q28.96148,66.4124,28.92314,66.2196Q28.8848,66.0269,28.827759999999998,65.8389Q28.77072,65.6508,28.695520000000002,65.4693Q28.62032,65.2877,28.52768,65.1144Q28.43505,64.9411,28.325879999999998,64.7777Q28.2167,64.6143,28.09204,64.4624Q27.96738,64.3105,27.82843,64.1716Q27.68948,64.0326,27.53757,63.908Q27.38567,63.7833,27.222279999999998,63.6741Q27.058889999999998,63.5649,26.88559,63.4723Q26.71228,63.3797,26.53073,63.3045Q26.34918,63.2293,26.16114,63.1722Q25.97309,63.1152,25.78036,63.0769Q25.58763,63.0385,25.39207,63.0193Q25.19651,63,25,63Q24.80349,63,24.60793,63.0193Q24.41237,63.0385,24.21964,63.0769Q24.02691,63.1152,23.83886,63.1722Q23.65082,63.2293,23.46927,63.3045Q23.28772,63.3797,23.11441,63.4723Q22.94111,63.5649,22.77772,63.6741Q22.61433,63.7833,22.46243,63.908Q22.31052,64.0326,22.17157,64.1716Q22.03262,64.3105,21.907958,64.4624Q21.783295,64.6143,21.674121,64.7777Q21.564948,64.9411,21.472315,65.1144Q21.379682,65.2877,21.304482,65.4693Q21.229282,65.6508,21.172239,65.8389Q21.115196,66.0269,21.0768589,66.2196Q21.0385222,66.4124,21.0192611,66.6079Q21,66.8035,21,67Q21,67.1649,21.013566,67.3292Q21.027132,67.4935,21.054172,67.6561Q21.0812119,67.8187,21.121542,67.9786Q21.161873,68.1384,21.215221,68.2944Q21.268568,68.4504,21.334571,68.6015Q21.400573,68.7525,21.478784,68.8977Q21.556994,69.0428,21.646881,69.181Q21.736768,69.3192,21.837722,69.4495Q21.938677,69.5798,22.05001,69.7014Q22.16135,69.823,22.28231,69.935Q22.40328,70.047,22.53305,70.1487Q22.66282,70.2504,22.80052,70.341Q22.93822,70.4316,23.0829,70.5107Q23.2276,70.5897,23.3783,70.6565Q23.529,70.7234,23.68469,70.7776Q23.84038,70.8318,24,70.873L24,100L26,100L26,70.873Q26.15962,70.8318,26.31531,70.7776Q26.471,70.7234,26.6217,70.6565Q26.7724,70.5897,26.91709,70.5107Q27.061790000000002,70.4316,27.19948,70.341Q27.33718,70.2504,27.46695,70.1487Q27.59672,70.047,27.71769,69.935Q27.83865,69.823,27.94999,69.7014Q28.061320000000002,69.5798,28.16228,69.4495Q28.26323,69.3192,28.35312,69.181Q28.44301,69.0428,28.52122,68.8977Q28.599429999999998,68.7525,28.66543,68.6015Q28.73143,68.4504,28.784779999999998,68.2944Q28.83813,68.1384,28.87846,67.9786Q28.91879,67.8187,28.94583,67.6561Q28.97287,67.4935,28.98643,67.3292Q29,67.1649,29,67ZM27,67Q27,66.9017,26.99037,66.804Q26.98074,66.7062,26.961570000000002,66.6098Q26.9424,66.5134,26.91388,66.4194Q26.88536,66.3254,26.84776,66.2346Q26.81016,66.1439,26.763840000000002,66.0572Q26.71753,65.9706,26.66294,65.8889Q26.60835,65.8072,26.54602,65.7312Q26.48369,65.6553,26.41421,65.5858Q26.34474,65.5163,26.26879,65.454Q26.19283,65.3916,26.11114,65.3371Q26.02945,65.2825,25.94279,65.2362Q25.85614,65.1898,25.76537,65.1522Q25.674590000000002,65.1146,25.58057,65.0861Q25.48655,65.0576,25.39018,65.0384Q25.29382,65.0193,25.19603,65.0096Q25.09825,65,25,65Q24.90175,65,24.80397,65.0096Q24.70618,65.0193,24.60982,65.0384Q24.51345,65.0576,24.41943,65.0861Q24.32541,65.1146,24.23463,65.1522Q24.14386,65.1898,24.05721,65.2362Q23.97055,65.2825,23.88886,65.3371Q23.80716,65.3916,23.73121,65.454Q23.65526,65.5163,23.58579,65.5858Q23.51631,65.6553,23.45398,65.7312Q23.39165,65.8072,23.33706,65.8889Q23.28247,65.9706,23.236159999999998,66.0572Q23.18984,66.1439,23.15224,66.2346Q23.11464,66.3254,23.08612,66.4194Q23.0576,66.5134,23.038429999999998,66.6098Q23.01926,66.7062,23.00963,66.804Q23,66.9017,23,67Q23,67.0983,23.00963,67.196Q23.01926,67.2938,23.038429999999998,67.3902Q23.0576,67.4866,23.08612,67.5806Q23.11464,67.6746,23.15224,67.7654Q23.18984,67.8561,23.236159999999998,67.9428Q23.28247,68.0294,23.33706,68.1111Q23.39165,68.1928,23.45398,68.2688Q23.51631,68.3447,23.58579,68.4142Q23.65526,68.4837,23.73121,68.546Q23.80716,68.6084,23.88886,68.6629Q23.97055,68.7175,24.05721,68.7638Q24.14386,68.8102,24.23463,68.8477Q24.32541,68.8854,24.41943,68.9139Q24.51345,68.9424,24.60982,68.9616Q24.70619,68.9807,24.80397,68.9904Q24.90175,69,25,69Q25.09825,69,25.19603,68.9904Q25.29382,68.9807,25.39018,68.9616Q25.48655,68.9424,25.58057,68.9139Q25.674590000000002,68.8854,25.76537,68.8477Q25.85614,68.8102,25.94279,68.7638Q26.02945,68.7175,26.11114,68.6629Q26.19283,68.6084,26.26879,68.546Q26.34474,68.4837,26.41421,68.4142Q26.48369,68.3447,26.54602,68.2688Q26.60835,68.1928,26.66294,68.1111Q26.71753,68.0294,26.763840000000002,67.9428Q26.81016,67.8561,26.84776,67.7654Q26.88536,67.6746,26.91388,67.5806Q26.9424,67.4866,26.961570000000002,67.3902Q26.98074,67.2938,26.99037,67.196Q27,67.0983,27,67Z" fill-rule="evenodd" fill="#00FF00" fill-opacity="1"/></g></g></svg>