<svg xmlns="http://www.w3.org/2000/svg" xmlns:xlink="http://www.w3.org/1999/xlink" fill="none" version="1.1" width="50" height="100" viewBox="0 0 50 100"><g style="mix-blend-mode:passthrough"><g style="mix-blend-mode:passthrough"></g><g style="mix-blend-mode:passthrough"><path d="M26,0L24,0L24,29.126C22.27477,29.5701,21,31.1362,21,33C21,35.0687,22.57035,36.7706,24.584,36.9786L28.541710000000002,65.1391C27.87204,63.8672,26.537300000000002,63,25,63C22.79086,63,21,64.7909,21,67C21,68.8638,22.27477,70.4299,24,70.874L24,100L26,100L26,70.874C27.72523,70.4299,29,68.8638,29,67C29,66.5753,28.93381,66.166,28.81117,65.782L30.616059999999997,65.5283L26.562170000000002,36.6835C27.99507,36.075,29,34.6549,29,33C29,31.1362,27.72523,29.5701,26,29.126L26,0ZM23,33C23,31.8954,23.89543,31,25,31C26.10457,31,27,31.8954,27,33C27,34.1046,26.10457,35,25,35C23.89543,35,23,34.1046,23,33ZM23,67C23,68.1046,23.89543,69,25,69C26.10457,69,27,68.1046,27,67C27,65.8954,26.10457,65,25,65C23.89543,65,23,65.8954,23,67Z" fill-rule="evenodd" fill="#FF0000" fill-opacity="1"/></g></g></svg>