<svg xmlns="http://www.w3.org/2000/svg" xmlns:xlink="http://www.w3.org/1999/xlink" fill="none" version="1.1" width="50" height="50" viewBox="0 0 50 50"><g style="mix-blend-mode:passthrough"><g style="mix-blend-mode:passthrough"><path d="M50,0L50,50L0,50L0,0L50,0ZM46.6005,2L2,2L2,46.7357L46.6005,2ZM48,3.42902L3.56372,48L48,48L48,3.42902ZM2.15168,48L2,47.8488L2,48L2.15168,48Z" fill-rule="evenodd" fill="#00FF00" fill-opacity="1"/></g><g style="mix-blend-mode:passthrough"><path d="M13.00548,6.553593635559082C16.0927,6.553593635559082,18.609,8.998103635559083,18.7244,12.057133635559083L18.7285,12.276653635559082C18.7285,14.266523635559082,20.2896,15.891773635559082,22.2539,15.994563635559082L22.4516,15.999723635559082L22.8643,15.999723635559082C25.0792,15.999723635559082,26.8874,14.258613635559083,26.9949,12.070413635559081L27,11.863993635559082L27,11.103093635559082L29,11.103093635559082L29,11.863993635559082C29,15.177363635559082,26.3737,17.877293635559084,23.0892,17.995693635559082L22.8643,17.999693635559083L22.4516,17.999693635559083C19.3644,17.999693635559083,16.848,15.555213635559083,16.7327,12.496183635559081L16.7285,12.276653635559082C16.7285,10.286793635559082,15.1675,8.661543635559083,13.20321,8.558753635559082L13.00548,8.553593635559082L11.3116,8.553593635559082C9.000409999999999,8.553593635559082,7.1139399999999995,10.372083635559083,7.00497,12.65629363555908L7,12.865193635559082L5,12.865193635559082C5,9.456853635559082,7.7016100000000005,6.679510635559082,11.08022,6.557756245559082L11.3116,6.553593635559082L13.00548,6.553593635559082Z" fill="#00FF00" fill-opacity="1"/></g><g style="mix-blend-mode:passthrough"><path d="M23,36L43,36L43,38L23,38L23,36ZM35,41L23,41L23,43L35,43L35,41ZM38,41L43,41L43,43L38,43L38,41Z" fill-rule="evenodd" fill="#00FF00" fill-opacity="1"/></g></g></svg>