<svg xmlns="http://www.w3.org/2000/svg" xmlns:xlink="http://www.w3.org/1999/xlink" fill="none" version="1.1" width="64" height="64" viewBox="0 0 64 64"><defs><clipPath id="master_svg0_152_0488"><rect x="0" y="0" width="64" height="64" rx="0"/></clipPath></defs><g style="mix-blend-mode:passthrough" clip-path="url(#master_svg0_152_0488)"><rect x="0" y="0" width="64" height="64" rx="0" fill="#FFFFFF" fill-opacity="1"/><g style="mix-blend-mode:passthrough"><g style="mix-blend-mode:passthrough"><rect x="0" y="0" width="64" height="64" rx="0" fill="#348FD6" fill-opacity="1"/></g><g style="mix-blend-mode:passthrough"><path d="M56.2608,28.8703C56.0897,28.578200000000002,55.9135,28.2895,55.7323,28.0043L55.6014,27.7899L55.5966,27.7928C50.6073,20.09383,41.9396,15,32.0822,15C22.2247,15,13.556989999999999,20.09385,8.56768,27.7929L8.56275,27.7899L8.42888,28.0092C8.24981,28.2912,8.07565,28.5766,7.906502,28.865299999999998L7,30.3507L11.80078,33.2804L13.36353,30.7196L11.12762,29.3551Q12.537939999999999,27.1889,14.40448,25.3223Q18.0656,21.66116,22.8798,19.75529Q26.6123,18.27761,30.5822,18.04391L30.5822,20.8L33.5822,20.8L33.5822,18.04391Q37.552,18.27761,41.2845,19.75529Q46.0987,21.66117,49.7598,25.3223Q51.6264,27.1889,53.0367,29.3551L50.8007,30.7196L52.3634,33.2804L57.1642,30.3507L56.2616,28.8716L56.2608,28.8703ZM43.2345,33.460300000000004C43.4591,33.1907,43.5822,32.850899999999996,43.5822,32.5C43.5822,31.6716,42.9106,31,42.0822,31C41.637,31,41.2148,31.1977,40.9298,31.5397L40.9295,31.5401L33.430099999999996,40.5394L33.4298,40.539699999999996C33.385999999999996,40.5924,33.346000000000004,40.6477,33.31,40.705200000000005C32.923100000000005,40.580600000000004,32.5105,40.5132,32.0822,40.5132C29.873,40.5132,28.0822,42.3041,28.0822,44.5132C28.0822,46.7224,29.873,48.5132,32.0822,48.5132C34.2913,48.5132,36.0822,46.7224,36.0822,44.5132C36.0822,43.821799999999996,35.9067,43.1712,35.597899999999996,42.6038C35.6462,42.5593,35.691900000000004,42.511399999999995,35.7345,42.460300000000004L35.7348,42.459900000000005L43.2345,33.460300000000004ZM33.0822,44.5132Q33.0822,44.099000000000004,32.7893,43.8061Q32.4964,43.5132,32.0822,43.5132Q31.6679,43.5132,31.375,43.8061Q31.0822,44.099000000000004,31.0822,44.5132Q31.0822,44.927499999999995,31.375,45.2204Q31.6679,45.5132,32.0822,45.5132Q32.4964,45.5132,32.7893,45.2204Q33.0822,44.927499999999995,33.0822,44.5132Z" fill-rule="evenodd" fill="#FFFFFF" fill-opacity="1"/></g></g></g></svg>