<svg xmlns="http://www.w3.org/2000/svg" viewBox="0 0 120 100"><defs><radialGradient id="gl" cx="50%" cy="62%" r="55%"><stop offset="0%" stop-color="#3498db" stop-opacity="0.35"/><stop offset="60%" stop-color="#3498db" stop-opacity="0.08"/><stop offset="100%" stop-color="#3498db" stop-opacity="0"/></radialGradient><linearGradient id="pt" x1="0" y1="0" x2="0" y2="1"><stop offset="0%" stop-color="#3498db" stop-opacity="0.5"/><stop offset="100%" stop-color="#3498db" stop-opacity="0.12"/></linearGradient></defs><ellipse cx="60" cy="86" rx="44" ry="11" fill="url(#gl)"/><polygon points="20,80 60,92 100,80 60,68" fill="none" stroke="#3498db" stroke-width="1" opacity="0.55"/><polygon points="20,74 60,86 100,74 60,62" fill="none" stroke="#3498db" stroke-width="1" opacity="0.4"/><polygon points="20,68 60,80 100,68 60,56" fill="none" stroke="#3498db" stroke-width="1" opacity="0.25000000000000006"/><polygon points="24,74 60,86 96,74 60,62" fill="url(#pt)" stroke="#3498db" stroke-width="1.2" opacity="0.9"/>
  <rect x="24" y="22" width="72" height="30" rx="6" fill="#eef4fa" stroke="#9bbdd8" stroke-width="1.2"/>
  <rect x="24" y="22" width="72" height="11" rx="6" fill="#dce8f2"/>
  <rect x="28" y="44" width="64" height="5" rx="2" fill="#0e1e3c"/>
  <line x1="32" y1="46.5" x2="88" y2="46.5" stroke="#3498db" stroke-width="1"/>
  <line x1="30" y1="28" x2="62" y2="28" stroke="#aac4dc" stroke-width="1"/>
  <line x1="30" y1="31" x2="56" y2="31" stroke="#aac4dc" stroke-width="1"/>
  <circle cx="82" cy="29" r="2" fill="#2ecc71"/>
  <path d="M40 56 q4 6 8 0" fill="none" stroke="#3498db" stroke-width="1.5" stroke-linecap="round"/>
  <path d="M54 56 q4 6 8 0" fill="none" stroke="#3498db" stroke-width="1.5" stroke-linecap="round" opacity="0.7"/>
  <path d="M68 56 q4 6 8 0" fill="none" stroke="#3498db" stroke-width="1.5" stroke-linecap="round" opacity="0.5"/>
  <line x1="60" y1="62" x2="60" y2="70" stroke="#888" stroke-width="2"/></svg>