<svg xmlns="http://www.w3.org/2000/svg" viewBox="0 0 120 100"><defs><radialGradient id="gl" cx="50%" cy="62%" r="55%"><stop offset="0%" stop-color="#3aa0ff" stop-opacity="0.4"/><stop offset="60%" stop-color="#3aa0ff" stop-opacity="0.1"/><stop offset="100%" stop-color="#3aa0ff" stop-opacity="0"/></radialGradient><linearGradient id="pt" x1="0" y1="0" x2="0" y2="1"><stop offset="0%" stop-color="#3aa0ff" stop-opacity="0.55"/><stop offset="100%" stop-color="#3aa0ff" stop-opacity="0.15"/></linearGradient></defs><ellipse cx="60" cy="86" rx="44" ry="11" fill="url(#gl)"/><polygon points="20,80 60,92 100,80 60,68" fill="none" stroke="#3aa0ff" stroke-width="1.2" opacity="0.55"/><polygon points="20,74 60,86 100,74 60,62" fill="none" stroke="#3aa0ff" stroke-width="1.2" opacity="0.4"/><polygon points="20,68 60,80 100,68 60,56" fill="none" stroke="#3aa0ff" stroke-width="1.2" opacity="0.25000000000000006"/><polygon points="24,74 60,86 96,74 60,62" fill="url(#pt)" stroke="#3aa0ff" stroke-width="1.4" opacity="0.95"/>
  <g transform="translate(0,-2)">
    <polygon points="40,12 60,18 60,64 40,58" fill="#1e3a5e"/>
    <polygon points="60,18 80,12 80,58 60,64" fill="#152a48"/>
    <polygon points="40,12 60,6 80,12 60,18" fill="#2a5078"/>
    <polygon points="43,16 57,20 57,26 43,22" fill="#0e4a7a"/>
    <polygon points="43,26 57,30 57,36 43,32" fill="#0e4a7a"/>
    <polygon points="43,36 57,40 57,46 43,42" fill="#0e4a7a"/>
    <polygon points="43,46 57,50 57,56 43,52" fill="#0e4a7a"/>
    <rect x="45" y="17.5" width="3.5" height="3.5" fill="#3affa0"/>
    <rect x="50" y="18.5" width="3.5" height="3.5" fill="#3affa0" opacity="0.8"/>
    <rect x="55" y="19.5" width="3" height="3.5" fill="#ffd060"/>
    <polygon points="62,18 78,14 78,20 62,24" fill="#1a6abf" opacity="0.7"/>
    <polygon points="62,28 78,24 78,30 62,34" fill="#1a6abf" opacity="0.6"/>
  </g>
  <line x1="60" y1="62" x2="60" y2="70" stroke="#7a8a9a" stroke-width="2"/>
  <text x="60" y="10" text-anchor="middle" fill="#6ab8ff" font-size="7" font-family="sans-serif">RACK</text></svg>