<svg xmlns="http://www.w3.org/2000/svg" viewBox="0 0 120 100"><defs><radialGradient id="gl" cx="50%" cy="62%" r="55%"><stop offset="0%" stop-color="#2ecc71" stop-opacity="0.4"/><stop offset="60%" stop-color="#2ecc71" stop-opacity="0.1"/><stop offset="100%" stop-color="#2ecc71" stop-opacity="0"/></radialGradient><linearGradient id="pt" x1="0" y1="0" x2="0" y2="1"><stop offset="0%" stop-color="#2ecc71" stop-opacity="0.55"/><stop offset="100%" stop-color="#2ecc71" stop-opacity="0.15"/></linearGradient></defs><ellipse cx="60" cy="86" rx="44" ry="11" fill="url(#gl)"/><polygon points="20,80 60,92 100,80 60,68" fill="none" stroke="#2ecc71" stroke-width="1.2" opacity="0.55"/><polygon points="20,74 60,86 100,74 60,62" fill="none" stroke="#2ecc71" stroke-width="1.2" opacity="0.4"/><polygon points="20,68 60,80 100,68 60,56" fill="none" stroke="#2ecc71" stroke-width="1.2" opacity="0.25000000000000006"/><polygon points="24,74 60,86 96,74 60,62" fill="url(#pt)" stroke="#2ecc71" stroke-width="1.4" opacity="0.95"/>
  <g transform="translate(0,-2)">
    <polygon points="46,14 58,18 58,62 46,58" fill="#3a4e62"/>
    <polygon points="58,18 70,14 70,58 58,62" fill="#2a3a4c"/>
    <polygon points="46,14 58,10 70,14 58,18" fill="#4a6078"/>
    <polygon points="48,18 56,20.5 56,32 48,29.5" fill="#0a2418"/>
    <polygon points="48,18 56,20.5 56,24 48,21.5" fill="#0f3a26"/>
    <text x="52" y="29" text-anchor="middle" fill="#3affa0" font-size="11" font-weight="bold">⚡</text>
    <rect x="60" y="22" width="9" height="2.5" rx="1" fill="#3affa0" opacity="0.9" transform="skewY(-18)"/>
    <rect x="60" y="28" width="7" height="2.5" rx="1" fill="#3affa0" opacity="0.6" transform="skewY(-18)"/>
    <rect x="60" y="34" width="8" height="2.5" rx="1" fill="#3affa0" opacity="0.7" transform="skewY(-18)"/>
    <circle cx="51" cy="44" r="2" fill="#2ecc71"/>
    <polyline points="38,42 38,50 44,50" fill="none" stroke="#5dd88a" stroke-width="2" stroke-linecap="round" stroke-linejoin="round"/>
    <circle cx="38" cy="40" r="3" fill="none" stroke="#5dd88a" stroke-width="2"/>
  </g>
  <line x1="60" y1="60" x2="60" y2="68" stroke="#7a8a9a" stroke-width="2"/>
  <text x="60" y="10" text-anchor="middle" fill="#5dd88a" font-size="7" font-family="sans-serif">EV</text></svg>