<svg xmlns="http://www.w3.org/2000/svg" viewBox="0 0 120 100"><defs><radialGradient id="gl" cx="50%" cy="62%" r="55%"><stop offset="0%" stop-color="#ff5a4d" stop-opacity="0.4"/><stop offset="60%" stop-color="#ff5a4d" stop-opacity="0.1"/><stop offset="100%" stop-color="#ff5a4d" stop-opacity="0"/></radialGradient><linearGradient id="pt" x1="0" y1="0" x2="0" y2="1"><stop offset="0%" stop-color="#ff5a4d" stop-opacity="0.55"/><stop offset="100%" stop-color="#ff5a4d" stop-opacity="0.15"/></linearGradient></defs><ellipse cx="60" cy="86" rx="44" ry="11" fill="url(#gl)"/><polygon points="20,80 60,92 100,80 60,68" fill="none" stroke="#ff5a4d" stroke-width="1.2" opacity="0.55"/><polygon points="20,74 60,86 100,74 60,62" fill="none" stroke="#ff5a4d" stroke-width="1.2" opacity="0.4"/><polygon points="20,68 60,80 100,68 60,56" fill="none" stroke="#ff5a4d" stroke-width="1.2" opacity="0.25000000000000006"/><polygon points="24,74 60,86 96,74 60,62" fill="url(#pt)" stroke="#ff5a4d" stroke-width="1.4" opacity="0.95"/>
  <g transform="translate(0,-2)">
    <polygon points="42,16 60,22 60,60 42,54" fill="#5a2420"/>
    <polygon points="60,22 78,16 78,54 60,60" fill="#481a18"/>
    <polygon points="42,16 60,10 78,16 60,22" fill="#6e2e28"/>
    <text x="56" y="46" text-anchor="middle" fill="#ff7a5a" font-size="20" font-weight="bold">⚡</text>
    <rect x="46" y="26" width="20" height="3" fill="#ff5a4d" opacity="0.5" transform="skewY(18)"/>
  </g>
  <line x1="46" y1="14" x2="46" y2="8" stroke="#ff5a4d" stroke-width="2"/>
  <line x1="56" y1="11" x2="56" y2="5" stroke="#ff5a4d" stroke-width="2"/>
  <line x1="66" y1="14" x2="66" y2="8" stroke="#ff5a4d" stroke-width="2"/>
  <circle cx="46" cy="7" r="2" fill="#ff7a5a"/><circle cx="56" cy="4" r="2" fill="#ff7a5a"/><circle cx="66" cy="7" r="2" fill="#ff7a5a"/>
  <line x1="60" y1="60" x2="60" y2="68" stroke="#7a8a9a" stroke-width="2"/>
  <text x="60" y="9" text-anchor="middle" fill="#ff8a7a" font-size="7" font-family="sans-serif">HV</text></svg>