<svg xmlns="http://www.w3.org/2000/svg" viewBox="0 0 120 100"><defs><radialGradient id="gl" cx="50%" cy="62%" r="55%"><stop offset="0%" stop-color="#2ec5ff" stop-opacity="0.35"/><stop offset="60%" stop-color="#2ec5ff" stop-opacity="0.08"/><stop offset="100%" stop-color="#2ec5ff" stop-opacity="0"/></radialGradient><linearGradient id="pt" x1="0" y1="0" x2="0" y2="1"><stop offset="0%" stop-color="#2ec5ff" stop-opacity="0.5"/><stop offset="100%" stop-color="#2ec5ff" stop-opacity="0.12"/></linearGradient></defs><ellipse cx="60" cy="86" rx="44" ry="11" fill="url(#gl)"/><polygon points="20,80 60,92 100,80 60,68" fill="none" stroke="#2ec5ff" stroke-width="1" opacity="0.55"/><polygon points="20,74 60,86 100,74 60,62" fill="none" stroke="#2ec5ff" stroke-width="1" opacity="0.4"/><polygon points="20,68 60,80 100,68 60,56" fill="none" stroke="#2ec5ff" stroke-width="1" opacity="0.25000000000000006"/><polygon points="24,74 60,86 96,74 60,62" fill="url(#pt)" stroke="#2ec5ff" stroke-width="1.2" opacity="0.9"/><g transform="translate(60,40) rotate(-22) translate(-60,-40)"><rect x="22" y="16" width="76" height="46" rx="2" fill="#0d2952" stroke="#2a7fd0" stroke-width="1.5"/><g stroke="#1a5a9a" stroke-width="0.8"><line x1="22" y1="31.3" x2="98" y2="31.3"/><line x1="22" y1="46.6" x2="98" y2="46.6"/><line x1="47.3" y1="16" x2="47.3" y2="62"/><line x1="72.6" y1="16" x2="72.6" y2="62"/></g><rect x="23" y="17" width="23.5" height="13.5" fill="#1565b8" opacity="0.85"/><rect x="48.3" y="17" width="23.5" height="13.5" fill="#1976d2" opacity="0.85"/><rect x="73.6" y="17" width="23.5" height="13.5" fill="#1565b8" opacity="0.85"/><rect x="23" y="32.3" width="23.5" height="13.5" fill="#1976d2" opacity="0.85"/><rect x="48.3" y="32.3" width="23.5" height="13.5" fill="#1565b8" opacity="0.85"/><rect x="73.6" y="32.3" width="23.5" height="13.5" fill="#1976d2" opacity="0.85"/><rect x="23" y="47.6" width="23.5" height="13.4" fill="#1565b8" opacity="0.85"/><rect x="48.3" y="47.6" width="23.5" height="13.4" fill="#1976d2" opacity="0.85"/><rect x="73.6" y="47.6" width="23.5" height="13.4" fill="#1565b8" opacity="0.85"/></g><line x1="52" y1="56" x2="56" y2="64" stroke="#888" stroke-width="2"/><line x1="68" y1="56" x2="64" y2="64" stroke="#888" stroke-width="2"/></svg>