<svg xmlns="http://www.w3.org/2000/svg" viewBox="0 0 120 100"><defs><radialGradient id="gl" cx="50%" cy="62%" r="55%"><stop offset="0%" stop-color="#2ecc71" stop-opacity="0.4"/><stop offset="60%" stop-color="#2ecc71" stop-opacity="0.1"/><stop offset="100%" stop-color="#2ecc71" stop-opacity="0"/></radialGradient><linearGradient id="pt" x1="0" y1="0" x2="0" y2="1"><stop offset="0%" stop-color="#2ecc71" stop-opacity="0.55"/><stop offset="100%" stop-color="#2ecc71" stop-opacity="0.15"/></linearGradient></defs><ellipse cx="60" cy="86" rx="44" ry="11" fill="url(#gl)"/><polygon points="20,80 60,92 100,80 60,68" fill="none" stroke="#2ecc71" stroke-width="1.2" opacity="0.55"/><polygon points="20,74 60,86 100,74 60,62" fill="none" stroke="#2ecc71" stroke-width="1.2" opacity="0.4"/><polygon points="20,68 60,80 100,68 60,56" fill="none" stroke="#2ecc71" stroke-width="1.2" opacity="0.25000000000000006"/><polygon points="24,74 60,86 96,74 60,62" fill="url(#pt)" stroke="#2ecc71" stroke-width="1.4" opacity="0.95"/>
  <rect x="40" y="16" width="40" height="46" rx="6" fill="#16304a" stroke="#5dd0ff" stroke-width="1.8"/>
  <rect x="44" y="20" width="32" height="14" rx="2" fill="#0a1c30" stroke="#3a7aaa" stroke-width="0.6"/>
  <circle cx="60" cy="42" r="3.5" fill="#3affa0"/>
  <circle cx="60" cy="56" r="3.5" fill="#3affa0"/>
  <line x1="60" y1="42" x2="72" y2="34" stroke="#3affa0" stroke-width="3" stroke-linecap="round"/>
  <line x1="56" y1="50" x2="64" y2="50" stroke="#5dd88a" stroke-width="2" stroke-linecap="round"/>
  <text x="60" y="30" text-anchor="middle" fill="#7ee0ff" font-size="7" font-family="monospace">QF</text>
  <line x1="60" y1="62" x2="60" y2="70" stroke="#7a8a9a" stroke-width="2"/>
  <line x1="60" y1="16" x2="60" y2="9" stroke="#7a8a9a" stroke-width="2"/></svg>